<?xml version="1.0" standalone="no"?>
<!DOCTYPE svg PUBLIC "-//W3C//DTD SVG 20010904//EN"
 "http://www.w3.org/TR/2001/REC-SVG-20010904/DTD/svg10.dtd">
<svg version="1.0" xmlns="http://www.w3.org/2000/svg"
 width="228.000000pt" height="103.000000pt" viewBox="0 0 228.000000 103.000000"
 preserveAspectRatio="xMidYMid meet">
<metadata>
Created by potrace 1.15, written by Peter Selinger 2001-2017
</metadata>
<g transform="translate(0.000000,103.000000) scale(0.100000,-0.100000)"
fill="#000000" stroke="none">
<path d="M0 515 l0 -515 1140 0 1140 0 0 515 0 515 -1140 0 -1140 0 0 -515z
m330 280 l0 -205 165 0 165 0 0 205 0 205 120 0 c66 0 120 -4 120 -9 0 -4 -11
-57 -25 -117 -58 -252 -85 -375 -85 -387 0 -9 37 -18 127 -31 l126 -17 21 24
c43 51 116 62 173 27 96 -58 76 -204 -33 -240 -43 -14 -102 1 -134 35 -14 15
-35 25 -50 25 -36 0 -221 -28 -228 -34 -3 -3 3 -26 12 -50 25 -65 87 -130 158
-165 l61 -31 -181 0 -182 0 0 180 0 180 -165 0 -165 0 0 -180 0 -180 -145 0
-145 0 0 485 0 485 145 0 145 0 0 -205z m1755 177 c107 -49 155 -132 155 -271
0 -138 -49 -225 -158 -278 -54 -26 -66 -28 -209 -31 l-153 -4 0 -179 0 -179
-187 1 -188 0 50 23 c147 68 229 263 179 422 -25 83 -105 162 -189 189 -75 24
-193 24 -254 1 -24 -9 -46 -14 -49 -11 -3 3 2 33 10 67 l15 63 221 3 222 2 0
106 0 106 243 -4 c228 -3 245 -4 292 -26z"/>
<path d="M1720 695 l0 -105 74 0 c90 0 136 25 150 81 20 79 -41 129 -156 129
l-68 0 0 -105z"/>
</g>
</svg>
